Coordinates

Units are S.I. units (second, meters, Newtons, ...)
If the header above contains a line with 'inDegrees', this indicates whether rotational values are in degrees (yes) or radians (no).

inDegrees=no
nColumns=21
nRows=12
DataType=double
version=3
OpenSimVersion=4.6-2026-03-31-d6972f9e6
endheader
time	/jointset/ground_pelvis/pelvis_tilt/value	/jointset/ground_pelvis/pelvis_list/value	/jointset/ground_pelvis/pelvis_rotation/value	/jointset/ground_pelvis/pelvis_tx/value	/jointset/ground_pelvis/pelvis_ty/value	/jointset/ground_pelvis/pelvis_tz/value	/jointset/hip_r/hip_flexion_r/value	/jointset/hip_r/hip_adduction_r/value	/jointset/hip_r/hip_rotation_r/value	/jointset/walker_knee_r/knee_angle_r/value	/jointset/patellofemoral_r/knee_angle_r_beta/value	/jointset/ankle_r/ankle_angle_r/value	/jointset/subtalar_r/subtalar_angle_r/value	/jointset/hip_l/hip_flexion_l/value	/jointset/hip_l/hip_adduction_l/value	/jointset/hip_l/hip_rotation_l/value	/jointset/walker_knee_l/knee_angle_l/value	/jointset/patellofemoral_l/knee_angle_l_beta/value	/jointset/ankle_l/ankle_angle_l/value	/jointset/subtalar_l/subtalar_angle_l/value
142.496	-0.09091247212261687	-0.005376943550540672	1.567804575663521	0.8908340424269811	0.9793596346665944	-0.9844055313320098	0.04360038379862721	-0.1594518246823654	0.0007125408057571567	1.484023102121469	1.484023100466469	-0.4568734102486535	-0.60547649257349	0.4244523035051315	0.1405688863525565	-0.0008407859653033564	0.8401988142088611	0.8401988146007683	0.2087858136757977	-0.5007862361626249
142.5	-0.09344980481490517	-0.006585326540121081	1.567449137327241	0.8907368673388939	0.9782525192231876	-0.9830842090205331	0.06279894928888884	-0.161110810631946	0.008027821890353639	1.506229592085014	1.506229590404542	-0.447478812472858	-0.6061291014800897	0.4187553956445638	0.1431994975858736	-0.002383961035450101	0.8479384031041959	0.8479384036907853	0.2211249768992271	-0.4995199513882961
142.504	-0.09528263961687378	-0.008123703307029457	1.566882703512287	0.8906391413168887	0.9772964202802453	-0.9817847860914286	0.08250994768427673	-0.1617653105285974	0.01553909700463258	1.526800614062292	1.526800612369883	-0.4374267921755551	-0.606274254287816	0.4124898135538408	0.1450395429337524	-0.004024960441495045	0.8539483101939018	0.8539483109573603	0.2334540369989018	-0.4977056105652652
142.508	-0.09640154551425814	-0.009930513590455218	1.566064358436857	0.8905398612764699	0.9764918786089747	-0.9805129482583119	0.1026312174955848	-0.1614085111756761	0.02320711384441761	1.545691511818645	1.545691510122111	-0.4267167063283913	-0.6058996390378224	0.4056246216017665	0.1460826457527912	-0.005773236003537886	0.8583034046907748	0.8583034056072069	0.2456777121269236	-0.4954405324027031
142.512	-0.09681507872468821	-0.01195059610174094	1.564953108579505	0.8904388364701969	0.9758387124742515	-0.9792739745613426	0.1230660633980727	-0.1600535445127783	0.03099192790090152	1.562865479703841	1.562865478006711	-0.4153650786676295	-0.6050019103792634	0.3981414926422755	0.1463401887160101	-0.007644434350280511	0.8610851999524266	0.8610852009940392	0.2577005764117463	-0.4928161407553893
142.516	-0.09654883147004341	-0.01413568401534505	1.563509587701514	0.8903366311031544	0.9753362937359836	-0.9780727091573653	0.1437236590179742	-0.1577321675819869	0.03885373586152532	1.5782927329884	1.578292731291679	-0.4034050793673816	-0.6035880063864589	0.3900333423722767	0.1458408226554528	-0.009659265415520252	0.8623781422092578	0.8623781433466896	0.2694259351889922	-0.4899172839823243
142.52	-0.09564372316247206	-0.01644427195169835	1.561697901810895	0.8902344497941507	0.9749838184709403	-0.976913549972837	0.1645187101428673	-0.154492795473679	0.04675327004201196	1.591949554256245	1.591949552560103	-0.3908854960615408	-0.6016762493172043	0.381302407682566	0.1446293339779554	-0.01184168760984389	0.8622664512708632	0.8622664524752702	0.2807545319095858	-0.4868221366570612
142.524	-0.0941536349611154	-0.01884108718355825	1.559487500798869	0.8901339752493689	0.9747805414530406	-0.9758004516586861	0.1853706724632525	-0.1503980179212503	0.05465178308120197	1.603817316160279	1.603817314465413	-0.3778691662506399	-0.599297046208687	0.3719581165435637	0.1427649002613107	-0.01421660301729279	0.8608316526984424	0.8608316539431466	0.2915833395118315	-0.483602379218767
142.528	-0.09214251436533936	-0.02129628632800859	1.556854931269226	0.8900371734246473	0.9747259597785407	-0.9747369401142516	0.206202699448048	-0.1455217191184653	0.06251072573952977	1.613881541035587	1.61388153934428	-0.3644309924005891	-0.596493137055553	0.3620149477523513	0.140318784107262	-0.01680729285758214	0.8581508663191457	0.8581508675808571	0.3018045955904236	-0.4803234677510945
142.532	-0.08968109949872909	-0.02378446170682639	1.553785297846634	0.8899460857751219	0.9748199392485577	-0.9737261368559708	0.2269404513698846	-0.1399459078457054	0.07029128658378936	1.622131031248244	1.622131029565338	-0.3506556939837455	-0.593319420460202	0.3514904059231951	0.1373715421485136	-0.01963283652527632	0.8542958421040538	0.8542958433636899	0.3113052108212883	-0.4770449216591531
142.536	-0.08684343774139472	-0.02628359231031929	1.550273257617656	0.88986263030096	0.9750627759826511	-0.972770792922976	0.2475109433113309	-0.1337573695192837	0.07795399026793809	1.62855710108539	1.628557099419329	-0.3366353739383461	-0.5898423894315677	0.3404032630850046	0.134009854874846	-0.02270577392888114	0.8493326764091524	0.8493326776521439	0.3199667207297617	-0.4738206006615329
142.54	-0.08370339782274662	-0.02877408219237551	1.546323417466929	0.8897884317098349	0.9754551877511314	-0.9718733308735407	0.2678416152129722	-0.1270442794691125	0.0854585178257517	1.633152943610783	1.633152941974623	-0.3224669884178026	-0.5861392049286975	0.3287722127812427	0.1303231170635118	-0.02603026841046415	0.8433221178550396	0.8433221190709936	0.3276658858449817	-0.4706989432926948
